<svg width="16" height="16" viewBox="0 0 16 16" fill="none" xmlns="http://www.w3.org/2000/svg">
<path fill-rule="evenodd" clip-rule="evenodd" d="M10.8873 0.875524C11.3606 0.875524 11.8331 0.942274 12.2823 1.09302C15.0506 1.99302 16.0481 5.03052 15.2148 7.68552C14.7423 9.04227 13.9698 10.2805 12.9581 11.2923C11.5098 12.6948 9.92058 13.9398 8.20983 15.0123L8.02233 15.1255L7.82733 15.0048C6.11058 13.9398 4.51233 12.6948 3.05058 11.2848C2.04558 10.273 1.27233 9.04227 0.792329 7.68552C-0.0551707 5.03052 0.94233 1.99302 3.74058 1.07727C3.95808 1.00227 4.18233 0.949774 4.40733 0.920524H4.49733C4.70808 0.889774 4.91733 0.875524 5.12733 0.875524H5.20983C5.68233 0.889774 6.13983 0.972274 6.58308 1.12302H6.62733C6.65733 1.13727 6.67983 1.15302 6.69483 1.16727C6.86058 1.22052 7.01733 1.28052 7.16733 1.36302L7.45233 1.49052C7.5212 1.52725 7.5985 1.58337 7.6653 1.63188C7.70763 1.66261 7.74574 1.69028 7.77483 1.70802C7.78707 1.71525 7.79951 1.72251 7.81205 1.72983C7.87636 1.76737 7.94334 1.80647 7.99983 1.84977C8.83308 1.21302 9.84483 0.868024 10.8873 0.875524ZM12.8823 6.27552C13.1898 6.26727 13.4523 6.02052 13.4748 5.70477V5.61552C13.4973 4.56477 12.8606 3.61302 11.8923 3.24552C11.5848 3.13977 11.2473 3.30552 11.1348 3.62052C11.0298 3.93552 11.1948 4.28052 11.5098 4.39227C11.9906 4.57227 12.3123 5.04552 12.3123 5.56977V5.59302C12.2981 5.76477 12.3498 5.93052 12.4548 6.05802C12.5598 6.18552 12.7173 6.25977 12.8823 6.27552Z" fill="white"/>
</svg>
